<svg class="svg-icon" style="width: 1em;height: 1em;vertical-align: middle;fill: currentColor;overflow: hidden;" viewBox="0 0 1024 1024" version="1.1" xmlns="http://www.w3.org/2000/svg"><path d="M341.333333 362.666667l33.834667 118.4A42.666667 42.666667 0 0 0 416.192 512h191.616a42.666667 42.666667 0 0 0 41.024-30.933333L682.666667 362.666667h85.333333a85.333333 85.333333 0 0 1 85.333333 85.333333v298.666667a85.333333 85.333333 0 0 1-85.333333 85.333333H256a85.333333 85.333333 0 0 1-85.333333-85.333333V448a85.333333 85.333333 0 0 1 85.333333-85.333333h85.333333z m190.762667-140.501334V446.933333a21.333333 21.333333 0 0 1-42.666667 0V222.165333l-69.013333 69.013334a21.333333 21.333333 0 0 1-30.165333-30.186667l105.408-105.408a21.269333 21.269333 0 0 1 30.186666 0l105.408 105.408a21.333333 21.333333 0 0 1-30.165333 30.186667l-68.992-69.013334zM375.296 618.666667a21.333333 21.333333 0 1 0 0 42.666666h275.904a21.333333 21.333333 0 0 0 0-42.666666H375.296z" fill="#2A2A37" /></svg>